{"glyphs":{":":{"x_min":0,"x_max":260,"ha":260,"o":"m 114 279 q 114 296 127 308 q 140 321 157 321 q 174 321 187 309 q 199 296 199 279 q 199 262 187 249 q 174 236 157 236 q 140 236 127 249 q 114 262 114 279 z m 65 32 q 65 49 78 62 q 91 74 108 74 q 125 74 137 62 q 150 49 150 32 q 150 15 137 2 q 125 -11 108 -11 q 91 -11 78 2 q 65 15 65 32 z"},"$":{"x_min":0,"x_max":458,"ha":458,"o":"m 304 543 l 258 329 q 306 271 330 228 q 354 185 354 140 q 354 77 312 36 q 271 -6 187 -12 l 162 -122 l 139 -122 l 163 -12 q 94 -1 51 37 l 77 158 l 93 158 q 91 140 91 124 q 91 28 168 11 l 222 265 q 170 323 151 359 q 133 396 133 436 q 133 495 175 534 q 217 573 287 573 l 292 595 l 315 595 l 310 573 q 362 566 403 531 l 380 422 l 365 422 q 358 527 304 543 z m 239 349 l 282 548 q 236 548 210 525 q 184 502 184 462 q 184 435 194 413 q 205 391 239 349 z m 240 245 l 190 10 q 236 12 264 44 q 293 77 293 123 q 293 175 240 245 z"},"?":{"x_min":0,"x_max":313,"ha":313,"o":"m 87 120 l 107 212 q 119 266 124 276 q 129 286 180 318 q 231 350 248 374 q 265 397 265 421 q 265 456 234 480 q 202 504 157 504 q 119 504 75 486 l 79 508 q 121 544 177 544 q 224 544 256 506 q 287 468 287 410 q 287 352 261 311 q 234 270 171 233 q 141 215 133 200 q 125 185 106 120 z m 35 32 q 35 49 48 62 q 61 74 78 74 q 95 74 108 62 q 120 49 120 32 q 120 15 108 2 q 95 -11 78 -11 q 61 -11 48 2 q 35 15 35 32 z"},"<":{"x_min":0,"x_max":667,"ha":667,"o":"m 71 302 l 71 340 l 596 561 l 596 514 l 128 321 l 596 128 l 596 81 z"},"'":{"x_min":0,"x_max":214,"ha":214,"o":"m 166 361 l 148 361 l 121 519 q 115 551 115 574 q 115 594 127 607 q 139 620 157 620 q 176 620 188 607 q 199 594 199 574 q 199 554 193 519 z"},"=":{"x_min":0,"x_max":667,"ha":667,"o":"m 86 400 l 611 400 l 611 357 l 86 357 z m 86 174 l 611 174 l 611 131 l 86 131 z"},"a":{"x_min":0,"x_max":396,"ha":396,"o":"m 367 340 l 314 94 q 311 79 311 68 q 311 28 356 34 l 352 17 l 235 -9 l 249 55 l 247 57 q 195 -11 130 -11 q 34 -11 34 92 q 34 189 118 264 q 202 340 339 340 z m 301 303 q 287 305 274 305 q 192 305 141 248 q 90 190 90 109 q 90 29 158 29 q 193 29 223 55 q 254 82 255 87 z"},"L":{"x_min":0,"x_max":406,"ha":406,"o":"m 381 86 l 354 0 l 7 0 l 11 17 q 40 20 54 32 q 68 43 77 86 l 157 466 q 163 496 163 507 q 163 538 111 538 l 114 555 l 295 555 l 292 538 q 263 536 249 522 q 235 508 226 466 l 144 82 q 142 72 142 64 q 142 22 199 22 l 232 22 q 295 22 323 36 q 351 51 365 86 z"},"3":{"x_min":0,"x_max":458,"ha":458,"o":"m 161 492 l 149 504 q 224 585 316 585 q 363 585 395 557 q 426 528 426 486 q 426 378 270 323 l 270 321 q 326 307 359 267 q 391 227 391 176 q 391 100 331 44 q 271 -11 188 -11 q 97 -11 24 67 l 36 79 q 103 32 163 32 q 237 32 278 86 q 320 141 320 196 q 320 238 290 265 q 260 292 202 292 q 184 292 167 291 l 171 308 q 261 329 308 369 q 356 410 356 463 q 356 500 333 523 q 311 547 276 547 q 226 547 161 492 z"},";":{"x_min":0,"x_max":260,"ha":260,"o":"m 114 279 q 114 296 127 308 q 140 321 157 321 q 174 321 187 309 q 199 296 199 279 q 199 262 187 249 q 174 236 157 236 q 140 236 127 249 q 114 262 114 279 z m 15 -125 l 19 -107 q 100 -83 100 -10 q 57 -2 57 33 q 57 52 69 64 q 82 76 100 76 q 122 76 135 59 q 149 42 149 14 q 149 -34 112 -73 q 76 -113 15 -125 z"},"J":{"x_min":0,"x_max":292,"ha":292,"o":"m 326 555 l 323 538 q 293 534 279 519 q 265 504 257 466 l 154 -18 q 132 -120 76 -173 q 21 -227 -55 -227 q -113 -227 -147 -199 l -136 -188 q -108 -205 -75 -205 q 45 -205 85 -18 l 188 466 q 194 493 194 504 q 194 536 143 538 l 147 555 z"},"V":{"x_min":0,"x_max":479,"ha":479,"o":"m 545 555 l 541 538 q 515 537 496 517 q 478 498 450 450 l 183 -14 l 168 -14 l 180 487 q 182 538 128 538 l 132 555 l 304 555 l 300 538 q 264 537 256 522 q 248 507 246 450 l 238 123 l 240 121 l 413 429 q 444 485 444 505 q 444 538 394 538 l 398 555 z"},"\"":{"x_min":0,"x_max":420,"ha":420,"o":"m 349 361 l 331 361 l 304 519 q 298 551 298 574 q 298 594 310 607 q 321 620 340 620 q 358 620 370 607 q 382 594 382 574 q 382 554 376 519 z m 188 361 l 170 361 l 143 519 q 137 551 137 574 q 137 594 149 607 q 161 620 179 620 q 198 620 209 607 q 221 594 221 574 q 221 554 215 519 z"},"7":{"x_min":0,"x_max":458,"ha":458,"o":"m 453 573 l 449 555 l 191 0 l 123 0 l 417 521 l 203 521 q 166 521 145 507 q 124 492 103 453 l 85 453 l 123 573 z"},"S":{"x_min":0,"x_max":406,"ha":406,"o":"m 396 568 l 373 460 l 355 460 q 359 500 334 522 q 308 545 272 545 q 231 545 203 515 q 175 485 175 451 q 175 417 190 386 q 205 355 262 289 q 318 224 335 196 q 351 168 351 125 q 351 66 305 27 q 258 -12 187 -12 q 153 -12 120 -2 q 86 8 79 8 q 63 8 56 -14 l 36 -14 l 59 93 l 78 93 q 91 54 124 32 q 157 10 198 10 q 235 10 262 38 q 288 65 288 105 q 288 156 221 230 q 154 304 137 337 q 121 371 121 408 q 121 473 167 520 q 214 567 278 567 q 310 567 334 558 q 359 550 365 550 q 371 550 378 568 z"},"}":{"x_min":0,"x_max":480,"ha":480,"o":"m 370 205 l 370 183 q 316 175 285 143 q 254 111 254 69 q 254 46 264 2 q 275 -42 275 -76 q 275 -142 229 -194 q 183 -246 105 -262 l 101 -244 q 212 -217 212 -132 q 212 -109 201 -53 q 191 2 191 24 q 191 136 330 194 q 191 252 191 364 q 191 386 201 441 q 212 497 212 520 q 212 605 101 632 l 105 650 q 183 634 229 582 q 275 530 275 464 q 275 430 264 387 q 254 344 254 319 q 254 277 285 245 q 316 213 370 205 z"},"Z":{"x_min":0,"x_max":510,"ha":510,"o":"m 534 533 l 114 22 l 313 22 q 377 22 401 39 q 424 56 439 94 l 456 94 l 436 0 l 19 0 l 23 17 l 451 533 l 270 533 q 218 533 195 515 q 171 498 156 452 l 139 452 l 161 555 l 538 555 z"},"x":{"x_min":0,"x_max":344,"ha":344,"o":"m 208 187 l 250 77 q 266 36 278 27 q 290 18 328 17 l 325 0 l 169 0 l 172 17 q 206 20 206 40 q 206 51 200 66 l 171 139 l 104 66 q 90 52 90 36 q 90 18 116 17 l 113 0 l 2 0 l 5 17 q 33 18 69 57 l 162 159 l 125 259 q 106 312 60 312 l 64 329 l 199 329 l 195 312 q 174 311 174 294 q 174 289 176 281 l 200 207 l 247 259 q 263 276 263 293 q 263 312 245 312 l 249 329 l 345 329 l 342 312 q 315 314 267 257 z"},")":{"x_min":0,"x_max":260,"ha":260,"o":"m -30 -189 l -52 -189 q 90 -41 133 88 q 176 217 176 329 q 176 401 160 457 q 144 513 107 584 l 125 584 q 174 506 202 422 q 230 337 230 270 q 230 30 -30 -189 z"},"&":{"x_min":0,"x_max":510,"ha":510,"o":"m 707 -31 l 703 -50 q 639 -98 571 -98 q 439 -98 330 44 q 262 -12 190 -12 q 129 -12 84 31 q 38 75 38 132 q 38 231 170 294 q 147 342 147 388 q 147 448 186 488 q 225 528 283 528 q 326 528 354 503 q 383 478 383 441 q 383 400 347 369 q 312 337 236 305 q 278 212 359 112 q 421 182 421 249 q 421 297 382 297 q 375 297 359 294 l 351 305 q 377 319 402 319 q 426 319 442 303 q 458 288 458 264 q 458 229 435 179 q 412 129 377 93 q 490 -58 611 -58 q 653 -58 707 -31 z m 202 422 q 202 372 226 322 q 325 364 325 437 q 325 462 308 479 q 291 496 265 496 q 238 496 220 475 q 202 454 202 422 z m 178 276 q 106 237 106 156 q 106 104 142 67 q 178 31 229 31 q 274 31 314 64 q 231 169 178 276 z"},"_":{"x_min":0,"x_max":500,"ha":500,"o":"m -9 -75 l 509 -75 l 509 -125 l -9 -125 z"},"v":{"x_min":0,"x_max":344,"ha":344,"o":"m 280 241 l 134 -9 l 116 -9 l 92 252 q 89 289 82 300 q 75 311 51 312 l 54 329 l 197 329 l 194 312 q 149 313 149 266 q 149 259 151 234 l 163 79 l 165 79 l 263 252 q 279 280 279 288 q 279 311 241 312 l 244 329 l 353 329 l 350 312 q 325 305 315 294 q 305 284 280 241 z"},"O":{"x_min":0,"x_max":563,"ha":563,"o":"m 366 567 q 450 567 500 511 q 551 456 551 364 q 551 226 463 107 q 375 -12 251 -12 q 170 -12 119 44 q 68 101 68 192 q 68 331 157 449 q 247 567 366 567 z m 271 10 q 362 10 420 126 q 477 242 477 377 q 477 451 441 498 q 405 545 349 545 q 263 545 203 432 q 142 319 142 179 q 142 103 177 56 q 213 10 271 10 z"},"(":{"x_min":0,"x_max":260,"ha":260,"o":"m 293 584 l 315 584 q 170 432 129 302 q 88 173 88 66 q 88 -8 104 -64 q 120 -120 156 -189 l 138 -189 q 89 -115 62 -30 q 34 56 34 125 q 34 366 293 584 z"},"C":{"x_min":0,"x_max":490,"ha":490,"o":"m 500 576 l 479 477 l 462 477 q 448 508 418 527 q 388 545 356 545 q 273 545 207 455 q 140 366 140 229 q 140 133 183 78 q 227 23 293 23 q 386 23 450 128 l 464 112 q 385 -12 267 -12 q 180 -12 123 55 q 66 122 66 226 q 66 356 156 462 q 245 567 355 567 q 380 567 414 559 q 448 551 453 551 q 467 551 483 576 z"},"W":{"x_min":0,"x_max":708,"ha":708,"o":"m 700 437 l 442 -14 l 426 -14 l 439 451 l 437 453 l 170 -14 l 154 -14 l 166 472 q 167 517 156 527 q 144 538 113 538 l 116 555 l 285 555 l 282 538 q 235 533 234 502 l 223 123 l 225 121 l 438 495 q 438 538 387 538 l 390 555 l 558 555 l 555 538 q 524 536 515 526 q 506 516 505 485 l 495 123 l 497 121 l 672 432 q 702 485 702 504 q 702 538 651 538 l 654 555 l 801 555 l 798 538 q 771 537 752 516 q 733 496 700 437 z"},"A":{"x_min":0,"x_max":469,"ha":469,"o":"m 375 567 l 375 74 q 375 41 384 29 q 394 17 432 17 l 428 0 l 253 0 l 250 17 q 284 17 295 27 q 306 36 306 69 l 306 231 l 179 231 l 122 134 q 77 57 77 37 q 77 17 121 17 l 117 0 l -28 0 l -24 17 q 5 19 24 32 q 44 45 72 92 l 357 567 z m 306 253 l 306 446 l 304 446 l 193 253 z"},"f":{"x_min":0,"x_max":240,"ha":240,"o":"m 241 329 l 238 302 l 168 302 l 113 10 q 91 -108 64 -162 q 38 -216 -10 -245 q -59 -275 -114 -275 q -188 -275 -230 -248 l -215 -178 l -198 -178 q -182 -255 -111 -255 q -57 -255 -16 -216 q 24 -177 51 -36 l 114 302 l 44 302 l 47 329 l 117 329 l 142 450 q 162 547 206 583 q 250 620 311 620 q 339 620 379 607 l 382 619 l 402 619 l 383 529 l 363 529 q 356 600 300 600 q 228 600 202 478 l 171 329 z"},"Q":{"x_min":0,"x_max":563,"ha":563,"o":"m 235 -12 q 157 -3 112 53 q 68 108 68 192 q 68 331 156 449 q 245 567 368 567 q 452 567 501 511 q 551 455 551 360 q 551 245 486 139 q 421 34 320 -1 q 413 -90 486 -133 q 559 -176 625 -176 q 720 -176 793 -113 l 805 -125 q 704 -222 593 -222 q 515 -222 417 -166 q 320 -110 235 -12 z m 349 545 q 262 545 202 431 q 142 317 142 179 q 142 103 177 56 q 213 10 271 10 q 360 10 419 125 q 477 239 477 377 q 477 451 441 498 q 405 545 349 545 z"},"w":{"x_min":0,"x_max":510,"ha":510,"o":"m 462 241 l 313 -9 l 298 -9 l 277 224 l 275 224 l 121 -9 l 104 -9 l 94 258 q 93 290 85 300 q 78 311 49 312 l 53 329 l 193 329 l 189 312 q 163 311 155 298 q 146 286 148 247 l 154 79 l 156 79 l 276 258 q 274 291 266 302 q 257 312 227 312 l 231 329 l 378 329 l 374 312 q 326 312 328 287 l 345 79 l 347 79 l 443 247 q 461 278 461 291 q 461 313 421 312 l 425 329 l 532 329 l 528 312 q 508 307 497 294 q 486 282 462 241 z"},"-":{"x_min":0,"x_max":313,"ha":313,"o":"m 262 183 l 254 146 l 49 146 l 57 183 z"},"E":{"x_min":0,"x_max":458,"ha":458,"o":"m 389 347 l 362 218 l 343 218 q 339 247 327 260 q 314 272 274 272 l 197 272 l 159 92 q 157 80 157 70 q 157 27 202 27 l 266 27 q 327 27 356 45 q 385 63 413 124 l 436 124 l 389 0 l 19 0 l 23 17 q 50 19 65 31 q 80 42 89 87 l 172 479 q 174 491 174 500 q 174 537 123 538 l 126 555 l 450 555 l 431 465 l 414 465 q 414 505 404 517 q 395 528 356 528 l 253 528 l 203 299 l 313 299 q 337 299 348 310 q 360 321 370 347 z"},"s":{"x_min":0,"x_max":250,"ha":250,"o":"m 249 335 l 232 255 l 216 255 q 204 317 153 317 q 133 317 118 304 q 104 292 104 275 q 104 246 146 196 q 188 146 198 124 q 208 101 208 81 q 208 40 173 14 q 139 -11 83 -11 q 62 -11 47 -6 l 36 -3 q 31 -3 21 -9 l 4 -9 l 22 77 l 40 77 q 39 70 39 63 q 39 41 55 25 q 72 9 93 9 q 120 9 140 25 q 159 41 159 62 q 159 93 110 151 q 61 209 61 238 q 61 280 93 310 q 124 340 169 340 q 188 340 204 336 q 220 332 221 332 q 226 332 229 333 q 232 335 233 335 z"},">":{"x_min":0,"x_max":667,"ha":667,"o":"m 596 302 l 71 81 l 71 128 l 539 321 l 71 514 l 71 561 l 596 340 z"},"l":{"x_min":0,"x_max":240,"ha":240,"o":"m 245 595 l 134 73 q 129 51 129 41 q 129 27 137 22 q 145 17 169 17 l 189 17 l 185 0 l 5 0 l 8 17 l 20 17 q 53 17 62 32 q 71 46 84 106 l 169 506 q 171 517 171 524 q 171 548 142 548 q 127 548 105 544 l 108 562 l 225 595 z"},"8":{"x_min":0,"x_max":458,"ha":458,"o":"m 282 319 q 355 211 355 141 q 355 77 308 33 q 262 -11 193 -11 q 135 -11 98 21 q 61 54 61 105 q 61 155 99 200 q 137 246 217 299 q 153 388 153 439 q 153 494 203 540 q 254 585 315 585 q 363 585 394 557 q 425 528 425 485 q 425 406 282 319 z m 207 472 q 207 418 271 333 q 374 395 374 471 q 374 507 350 533 q 326 560 295 560 q 258 560 232 535 q 207 509 207 472 z m 298 118 q 298 183 227 280 q 112 200 112 104 q 112 66 137 40 q 163 14 200 14 q 244 14 271 43 q 298 72 298 118 z"},"\\":{"x_min":0,"x_max":500,"ha":500,"o":"m 147 595 l 439 -12 l 393 -12 l 101 595 z"},"e":{"x_min":0,"x_max":313,"ha":313,"o":"m 90 147 q 88 134 88 123 q 88 35 169 35 q 228 35 281 106 l 291 93 q 255 38 222 13 q 188 -11 140 -11 q 88 -11 60 18 q 32 47 32 100 q 32 191 96 265 q 161 340 238 340 q 268 340 286 324 q 303 309 303 283 q 303 240 246 201 q 189 162 90 147 z m 94 165 q 244 193 244 265 q 244 280 231 292 q 218 304 202 304 q 166 304 133 261 q 101 218 94 165 z"},"b":{"x_min":0,"x_max":365,"ha":365,"o":"m 189 595 l 124 291 l 126 289 q 183 340 233 340 q 278 340 310 303 q 343 266 343 215 q 343 131 272 60 q 201 -11 91 -11 l 14 -9 l 117 509 q 119 518 119 524 q 119 553 65 553 l 68 570 l 169 595 z m 124 257 l 73 17 q 93 14 108 14 q 189 14 237 63 q 284 113 284 198 q 284 244 262 272 q 240 300 204 300 q 168 300 124 257 z"},"%":{"x_min":0,"x_max":750,"ha":750,"o":"m 236 584 q 273 584 299 553 q 325 522 325 478 q 325 403 274 339 q 222 275 163 275 q 125 275 98 306 q 72 336 72 382 q 72 458 123 521 q 175 584 236 584 z m 174 293 q 207 293 240 345 q 273 398 273 479 q 273 517 258 541 q 243 566 221 566 q 185 566 154 510 q 124 455 124 384 q 124 344 138 319 q 152 293 174 293 z m 639 584 l 668 584 l 138 0 l 109 0 z m 615 304 q 652 304 678 273 q 704 242 704 198 q 704 123 653 59 q 601 -5 542 -5 q 503 -5 477 26 q 451 56 451 102 q 451 178 502 241 q 554 304 615 304 z m 553 13 q 586 13 619 66 q 652 118 652 199 q 652 237 637 261 q 622 286 600 286 q 563 286 533 231 q 503 175 503 104 q 503 64 517 39 q 532 13 553 13 z"},"m":{"x_min":0,"x_max":573,"ha":573,"o":"m 532 230 l 497 60 q 495 51 495 44 q 495 17 531 17 l 528 0 l 385 0 l 388 17 q 415 19 425 31 q 436 43 444 85 l 475 234 q 477 244 477 252 q 477 300 426 300 q 396 300 348 248 l 310 74 q 306 57 306 46 q 306 17 347 17 l 344 0 l 199 0 l 202 17 q 241 20 252 70 l 286 230 q 289 242 289 252 q 289 300 245 300 q 216 300 187 270 q 157 240 155 230 l 121 74 q 117 55 117 45 q 117 17 164 17 l 161 0 l 17 0 l 20 17 q 52 18 66 85 l 100 248 q 103 261 103 270 q 103 296 72 296 q 64 296 53 295 l 57 312 l 158 338 l 178 338 l 164 278 l 166 276 q 223 340 273 340 q 337 340 346 276 q 378 309 402 324 q 426 340 455 340 q 492 340 514 319 q 535 297 535 260 q 535 246 532 230 z"},"#":{"x_min":0,"x_max":668,"ha":668,"o":"m 57 464 l 220 464 l 263 667 l 306 667 l 263 464 l 486 464 l 529 667 l 572 667 l 529 464 l 631 464 l 631 421 l 520 421 l 477 223 l 631 223 l 631 180 l 468 180 l 425 -23 l 382 -23 l 425 180 l 202 180 l 159 -23 l 116 -23 l 159 180 l 57 180 l 57 223 l 168 223 l 211 421 l 57 421 z m 254 421 l 211 223 l 434 223 l 477 421 z"},",":{"x_min":0,"x_max":260,"ha":260,"o":"m 15 -125 l 19 -107 q 100 -83 100 -10 q 57 -2 57 33 q 57 52 69 64 q 82 76 100 76 q 122 76 135 59 q 149 42 149 14 q 149 -34 112 -73 q 76 -113 15 -125 z"},"n":{"x_min":0,"x_max":417,"ha":417,"o":"m 174 339 l 161 281 l 163 279 q 196 311 220 325 q 244 340 276 340 q 318 340 344 315 q 370 291 370 247 q 370 230 366 211 l 334 57 q 332 46 332 40 q 332 26 342 22 q 352 17 381 17 l 378 0 l 215 0 l 218 17 q 250 19 261 28 q 271 38 278 69 l 312 228 q 314 237 314 245 q 314 270 298 285 q 283 300 258 300 q 213 300 155 239 l 121 76 q 116 54 116 44 q 116 28 126 23 q 137 17 163 17 l 160 0 l 15 0 l 18 17 q 51 21 61 67 l 100 250 q 102 259 102 266 q 102 296 77 296 q 62 296 39 290 l 44 312 l 154 339 z"},"h":{"x_min":0,"x_max":417,"ha":417,"o":"m 226 595 l 161 283 l 163 281 q 221 340 279 340 q 318 340 344 313 q 370 286 370 242 q 370 227 366 209 l 336 62 q 333 50 333 42 q 333 21 369 17 l 365 0 l 224 0 l 228 17 q 255 20 264 33 q 274 46 282 84 l 310 214 q 313 229 313 242 q 313 300 253 300 q 207 300 154 242 l 116 57 q 114 48 114 42 q 114 17 154 17 l 150 0 l 14 0 l 18 17 q 38 17 46 31 q 54 46 62 84 l 148 502 q 153 524 153 532 q 153 546 142 551 q 131 555 103 555 l 106 570 l 206 595 z"},"z":{"x_min":0,"x_max":365,"ha":365,"o":"m 350 329 l 350 312 l 87 17 l 199 17 q 250 17 267 32 q 284 46 294 82 l 311 82 l 294 0 l 16 0 l 16 17 l 277 312 l 172 312 q 101 312 87 254 l 70 254 l 86 329 z"},"B":{"x_min":0,"x_max":458,"ha":458,"o":"m 11 0 l 15 17 q 47 19 63 33 q 79 47 87 87 l 182 538 q 147 527 107 492 l 90 504 q 153 567 247 567 q 321 567 368 526 q 416 485 416 423 q 416 377 384 341 q 352 306 294 295 l 294 293 q 354 280 388 243 q 422 207 422 157 q 422 90 369 45 q 315 0 226 0 z m 251 538 l 202 307 q 210 305 240 305 q 289 305 319 338 q 350 371 350 423 q 350 473 324 504 q 297 536 251 538 z m 197 280 l 151 66 q 150 60 150 55 q 150 22 201 22 q 271 22 310 61 q 348 100 348 165 q 348 217 316 250 q 284 283 230 283 q 214 283 197 280 z"},"K":{"x_min":0,"x_max":521,"ha":521,"o":"m 246 322 l 391 97 q 422 50 448 34 q 473 17 509 17 l 506 0 l 300 0 l 304 17 q 344 18 344 42 q 344 52 314 97 l 185 291 l 142 87 q 136 61 136 49 q 136 20 181 17 l 178 0 l 6 0 l 9 17 q 42 21 53 35 q 64 48 73 87 l 153 465 q 158 490 158 500 q 158 529 110 538 l 114 555 l 287 555 l 283 538 q 253 533 242 518 q 230 502 222 465 l 187 303 l 189 301 l 381 465 q 416 495 416 511 q 416 531 376 538 l 380 555 l 543 555 l 539 538 q 482 527 403 458 z"},"R":{"x_min":0,"x_max":510,"ha":510,"o":"m 209 289 l 166 86 q 161 64 161 52 q 161 17 212 17 l 209 0 l 32 0 l 35 17 q 67 21 78 35 q 89 50 97 86 l 192 532 q 145 525 98 470 l 83 479 q 144 567 259 567 q 337 567 386 528 q 436 489 436 429 q 436 327 317 297 l 317 295 q 353 285 377 250 q 400 214 432 133 q 464 51 474 35 q 483 20 502 17 l 499 0 l 353 0 l 356 17 q 394 17 394 42 q 394 56 350 157 q 306 259 281 275 q 257 290 226 290 q 216 290 209 289 z m 262 538 l 214 310 q 231 307 244 307 q 362 307 362 434 q 362 525 262 538 z"},"T":{"x_min":0,"x_max":490,"ha":490,"o":"m 364 528 l 270 84 q 264 58 264 49 q 264 20 310 17 l 307 0 l 131 0 l 134 17 q 167 19 180 35 q 194 51 201 84 l 295 528 l 203 528 q 135 528 114 478 l 96 478 l 117 575 l 135 575 q 141 563 152 559 q 162 555 209 555 l 451 555 q 516 555 530 575 l 548 575 l 527 478 l 510 478 q 507 504 498 516 q 488 528 451 528 z"},"P":{"x_min":0,"x_max":406,"ha":406,"o":"m 185 268 l 146 88 q 141 66 141 53 q 141 17 188 17 l 200 17 l 197 0 l 13 0 l 16 17 q 41 19 55 32 q 68 46 77 88 l 173 538 q 123 530 67 471 l 55 478 q 119 567 248 567 q 328 567 374 528 q 421 490 421 424 q 421 356 371 308 q 321 259 251 259 q 222 259 185 268 z m 242 538 l 189 288 q 209 281 231 281 q 283 281 315 318 q 347 354 347 415 q 347 532 242 538 z"},"|":{"x_min":0,"x_max":496,"ha":496,"o":"m 236 595 l 280 595 l 280 -236 l 236 -236 z"},"t":{"x_min":0,"x_max":260,"ha":260,"o":"m 248 329 l 243 302 l 152 302 l 103 73 q 101 64 101 57 q 101 29 126 29 q 167 29 230 82 l 242 70 q 152 -11 86 -11 q 40 -11 40 31 q 40 48 51 100 l 94 302 l 34 302 l 37 319 q 116 327 158 416 l 176 416 l 157 329 z"},"M":{"x_min":0,"x_max":667,"ha":667,"o":"m 631 464 l 551 86 q 545 62 545 51 q 545 20 592 17 l 588 0 l 409 0 l 413 17 q 437 17 455 28 q 473 39 483 86 l 561 454 l 559 456 l 270 0 l 252 0 l 267 454 l 264 456 l 103 86 q 91 58 91 43 q 91 17 135 17 l 131 0 l 4 0 l 8 17 q 48 17 85 101 l 260 500 q 250 534 184 538 l 188 555 l 335 555 l 321 126 l 323 124 l 595 555 l 696 555 l 692 538 q 660 531 649 517 q 639 502 631 464 z"},"g":{"x_min":0,"x_max":385,"ha":385,"o":"m 364 340 l 260 -179 q 241 -275 105 -275 q 40 -275 2 -245 q -35 -216 -35 -170 q -35 -83 121 -9 q 46 20 46 104 q 46 198 131 269 q 216 340 364 340 z m 252 60 l 303 300 q 289 300 282 300 q 207 300 158 253 q 105 203 105 122 q 105 76 126 49 q 147 23 183 23 q 208 23 230 39 q 251 55 252 60 z m 199 -193 l 245 26 l 243 28 q 213 1 151 -20 q 88 -41 54 -77 q 19 -113 19 -150 q 19 -191 51 -221 q 83 -252 126 -252 q 158 -252 175 -240 q 191 -228 199 -193 z"},"j":{"x_min":0,"x_max":240,"ha":240,"o":"m 136 446 q 136 459 146 469 q 155 478 169 478 q 183 478 192 469 q 201 459 201 446 q 201 433 192 423 q 182 413 169 413 q 156 413 146 423 q 136 433 136 446 z m 194 339 l 85 -170 q 62 -275 -34 -275 q -80 -275 -109 -257 l -106 -241 q -82 -253 -57 -253 q -20 -253 0 -232 q 19 -211 28 -166 l 116 247 q 119 260 119 270 q 119 298 91 298 q 85 298 47 292 l 52 312 l 174 339 z"},"i":{"x_min":0,"x_max":240,"ha":240,"o":"m 165 478 q 178 478 188 469 q 197 459 197 446 q 197 433 188 423 q 178 413 165 413 q 151 413 142 423 q 132 433 132 446 q 132 459 142 469 q 151 478 165 478 z m 195 338 l 141 82 q 136 55 136 44 q 136 28 145 23 q 154 17 191 17 l 188 0 l 12 0 l 16 17 q 52 17 62 24 q 72 30 80 68 l 119 249 q 122 264 122 272 q 122 297 94 297 l 55 292 l 59 312 l 175 338 z"},"y":{"x_min":0,"x_max":365,"ha":365,"o":"m 382 329 l 378 312 q 354 310 342 298 q 330 287 312 254 l 123 -88 q 85 -157 54 -192 q 24 -227 -23 -254 q -69 -281 -117 -281 q -121 -281 -142 -278 l -123 -224 q -42 -224 17 -177 q 76 -130 125 -37 l 102 244 q 98 291 91 301 q 83 312 61 312 l 65 329 l 212 329 l 208 312 q 177 312 166 305 q 155 297 155 274 q 155 268 156 255 l 173 47 l 175 47 l 283 244 q 302 278 302 291 q 302 312 271 312 l 275 329 z"},"@":{"x_min":0,"x_max":920,"ha":920,"o":"m 712 464 l 613 120 q 608 102 608 87 q 608 41 653 41 q 722 41 792 135 q 863 229 863 357 q 863 496 774 582 q 686 668 543 668 q 356 668 238 527 q 120 385 120 194 q 120 34 227 -79 q 333 -192 507 -192 q 636 -192 745 -119 q 853 -46 901 80 l 928 80 q 877 -59 762 -138 q 646 -218 506 -218 q 320 -218 201 -95 q 81 28 81 220 q 81 419 215 556 q 348 693 543 693 q 699 693 793 601 q 887 509 887 354 q 887 212 806 110 q 725 8 629 8 q 548 8 548 77 q 548 88 560 150 l 558 152 q 452 13 374 13 q 331 13 305 44 q 279 74 279 125 q 279 243 376 355 q 473 467 548 467 q 617 467 633 399 l 635 399 l 646 455 z m 348 135 q 348 104 365 85 q 381 66 409 66 q 474 66 545 170 q 616 273 616 369 q 616 445 546 445 q 485 445 417 337 q 348 229 348 135 z"},".":{"x_min":0,"x_max":260,"ha":260,"o":"m 65 32 q 65 49 78 62 q 91 74 108 74 q 125 74 137 62 q 150 49 150 32 q 150 15 137 2 q 125 -11 108 -11 q 91 -11 78 2 q 65 15 65 32 z"},"p":{"x_min":0,"x_max":396,"ha":396,"o":"m 176 340 l 166 297 l 168 295 q 216 340 272 340 q 313 340 343 305 q 372 271 372 220 q 372 132 296 62 q 219 -9 102 -9 l 69 -163 q 63 -190 63 -203 q 63 -230 89 -230 q 101 -230 123 -225 l 118 -248 l 7 -275 l -13 -275 l 96 235 q 100 252 100 264 q 100 298 67 298 q 58 298 39 295 l 43 312 l 156 340 z m 160 265 l 109 25 q 123 23 144 23 q 218 23 266 75 q 313 127 313 208 q 313 251 292 277 q 271 303 236 303 q 200 303 160 265 z"},"X":{"x_min":0,"x_max":552,"ha":552,"o":"m 342 308 l 400 100 q 415 48 432 33 q 449 19 482 17 l 479 0 l 307 0 l 310 17 q 343 17 343 40 q 343 51 338 69 l 289 243 l 161 84 q 131 47 131 33 q 131 18 162 17 l 159 0 l 17 0 l 20 17 q 56 17 83 35 q 111 53 148 100 l 283 269 l 231 453 q 218 499 202 517 q 185 536 148 538 l 152 555 l 331 555 l 327 538 q 288 534 288 509 q 288 501 293 485 l 336 335 l 439 463 q 467 498 467 517 q 467 537 440 538 l 444 555 l 582 555 l 578 538 q 543 535 527 525 q 510 515 480 478 z"},"*":{"x_min":0,"x_max":458,"ha":458,"o":"m 261 376 q 261 409 249 448 q 237 486 237 506 q 237 526 247 541 q 257 555 272 555 q 307 555 307 505 q 307 484 293 445 q 278 405 281 376 q 306 384 346 427 q 386 470 414 470 q 428 470 438 462 q 448 454 448 443 q 448 424 434 410 q 419 396 365 382 q 311 367 291 357 q 321 340 369 329 q 417 318 432 302 q 447 287 447 270 q 447 258 438 250 q 429 241 417 241 q 403 241 386 250 q 369 259 333 293 q 298 327 281 339 q 282 306 293 262 q 305 219 305 202 q 305 183 294 169 q 284 156 269 156 q 255 156 245 169 q 235 182 235 201 q 235 223 248 263 q 261 302 261 339 q 234 325 202 291 q 170 257 156 250 q 142 243 128 243 q 113 243 103 251 q 93 259 93 272 q 93 312 161 328 q 229 343 251 357 q 233 369 179 383 q 125 397 110 411 q 96 425 96 443 q 96 473 125 473 q 141 473 156 465 q 172 458 204 421 q 236 385 261 376 z"},"Y":{"x_min":0,"x_max":458,"ha":458,"o":"m 314 307 l 269 87 q 263 56 263 46 q 263 17 312 17 l 308 0 l 131 0 l 135 17 q 163 20 177 31 q 190 42 197 73 l 243 295 l 163 487 q 148 524 135 530 q 122 537 97 538 l 101 555 l 266 555 l 262 538 q 228 537 228 515 q 228 503 239 476 l 301 326 l 412 476 q 431 502 431 514 q 431 538 387 538 l 391 555 l 534 555 l 530 538 q 509 538 491 528 q 473 518 441 476 z"},"c":{"x_min":0,"x_max":302,"ha":302,"o":"m 298 342 l 287 246 l 273 246 q 274 276 257 294 q 240 311 210 311 q 163 311 126 253 q 90 195 90 117 q 90 29 160 29 q 211 29 262 73 l 273 61 q 199 -11 131 -11 q 87 -11 59 22 q 31 55 31 108 q 31 188 92 264 q 152 340 219 340 q 241 340 254 337 q 267 334 270 334 q 281 334 287 342 z"},"!":{"x_min":0,"x_max":313,"ha":313,"o":"m 118 121 l 177 546 q 184 595 217 595 q 252 595 252 552 q 252 539 247 521 l 135 121 z m 67 32 q 67 49 80 62 q 93 74 110 74 q 127 74 139 62 q 152 49 152 32 q 152 15 139 2 q 127 -11 110 -11 q 93 -11 80 2 q 67 15 67 32 z"},"/":{"x_min":0,"x_max":500,"ha":500,"o":"m 401 595 l 447 595 l 155 -12 l 109 -12 z"},"[":{"x_min":0,"x_max":313,"ha":313,"o":"m 18 -178 l 171 567 l 338 567 l 334 550 l 285 550 q 244 550 233 540 q 223 529 211 472 l 87 -108 l 83 -138 q 83 -161 118 -161 l 183 -161 l 179 -178 z"},"6":{"x_min":0,"x_max":458,"ha":458,"o":"m 447 586 l 447 573 q 252 546 139 282 l 141 280 q 204 362 282 362 q 334 362 371 320 q 408 277 408 216 q 408 127 344 58 q 281 -11 199 -11 q 136 -11 95 39 q 54 90 54 168 q 54 314 169 442 q 284 569 447 586 z m 343 194 q 343 251 316 287 q 290 322 247 322 q 193 322 156 273 q 119 225 119 152 q 119 88 149 51 q 179 14 218 14 q 271 14 307 67 q 343 119 343 194 z"},"r":{"x_min":0,"x_max":281,"ha":281,"o":"m 169 335 l 142 209 l 144 207 q 192 340 250 340 q 272 340 290 312 l 256 251 q 227 281 217 281 q 199 281 170 222 q 141 163 130 114 l 119 63 q 117 55 117 47 q 117 17 156 17 l 170 17 l 167 0 l 5 0 l 8 17 q 37 17 46 28 q 56 38 65 82 l 98 235 q 102 253 102 266 q 102 296 78 296 q 73 296 45 292 l 49 312 l 149 335 z"},"2":{"x_min":0,"x_max":458,"ha":458,"o":"m 360 51 l 349 0 l 34 0 l 38 17 q 357 309 357 455 q 357 496 332 522 q 308 548 269 548 q 208 548 133 467 l 122 477 q 211 585 301 585 q 354 585 389 552 q 425 520 425 472 q 425 390 350 297 q 274 204 97 51 z"},"{":{"x_min":0,"x_max":480,"ha":480,"o":"m 130 183 l 130 205 q 184 213 215 245 q 246 277 246 319 q 246 340 236 383 q 225 426 225 464 q 225 530 271 582 q 317 634 395 650 l 399 632 q 288 605 288 520 q 288 492 299 437 q 309 381 309 364 q 309 252 170 194 q 309 136 309 24 q 309 7 299 -49 q 288 -104 288 -132 q 288 -217 399 -244 l 395 -262 q 317 -246 271 -194 q 225 -142 225 -76 q 225 -38 236 6 q 246 50 246 69 q 246 111 215 143 q 184 175 130 183 z"},"9":{"x_min":0,"x_max":458,"ha":458,"o":"m 50 -11 l 50 2 q 242 29 358 293 l 356 295 q 292 213 215 213 q 162 213 125 255 q 89 298 89 360 q 89 449 153 517 q 216 586 298 586 q 361 586 402 536 q 443 485 443 407 q 443 262 327 134 q 212 6 50 -11 z m 154 381 q 154 323 180 288 q 207 253 250 253 q 304 253 341 302 q 378 351 378 423 q 378 486 349 524 q 321 561 279 561 q 229 561 191 512 q 154 463 154 381 z"}," ":{"x_min":0,"x_max":225,"ha":225,"o":""},"I":{"x_min":0,"x_max":260,"ha":260,"o":"m 291 555 l 288 538 q 265 533 252 519 q 240 505 231 463 l 150 85 q 145 62 145 50 q 145 19 186 17 l 182 0 l 9 0 l 13 17 q 42 19 56 29 q 71 40 81 85 l 162 463 q 168 490 168 504 q 168 523 158 531 q 149 538 118 538 l 122 555 z"},"H":{"x_min":0,"x_max":615,"ha":615,"o":"m 649 555 l 645 538 q 611 532 600 519 q 589 505 581 468 l 497 74 q 493 58 493 48 q 493 21 535 17 l 531 0 l 359 0 l 363 17 q 400 21 411 37 q 422 52 432 96 l 472 282 l 193 282 l 149 74 q 146 60 146 50 q 146 20 192 17 l 188 0 l 8 0 l 12 17 q 42 17 58 29 q 73 41 83 88 l 167 482 q 169 495 169 503 q 169 536 122 538 l 126 555 l 301 555 l 297 538 q 261 532 251 519 q 241 505 233 468 l 199 309 l 478 309 l 515 482 q 518 494 518 503 q 518 536 473 538 l 477 555 z"},"4":{"x_min":0,"x_max":458,"ha":458,"o":"m 444 191 l 435 151 l 334 151 l 302 -8 l 240 -8 l 271 151 l 10 151 l 14 168 l 400 587 l 422 587 l 342 191 z m 338 494 l 60 191 l 279 191 l 340 492 z"},"~":{"x_min":0,"x_max":667,"ha":667,"o":"m 588 390 l 611 390 q 609 325 575 288 q 541 250 489 250 q 452 250 341 294 q 230 339 201 339 q 126 339 111 251 l 88 251 q 87 312 121 352 q 155 391 209 391 q 247 391 357 345 q 467 300 499 300 q 578 300 588 390 z"},"D":{"x_min":0,"x_max":583,"ha":583,"o":"m 9 0 l 13 17 q 45 17 60 32 q 76 47 84 87 l 178 530 q 138 522 94 487 l 85 500 q 152 567 258 567 q 388 567 471 487 q 554 407 554 282 q 554 163 470 81 q 387 0 245 0 z m 249 538 l 150 73 q 149 68 149 64 q 149 22 229 22 q 353 22 416 90 q 480 157 480 270 q 480 379 419 456 q 358 533 249 538 z"},"^":{"x_min":0,"x_max":422,"ha":422,"o":"m 235 677 l 443 327 l 398 327 l 227 613 l 56 327 l 10 327 l 220 677 z"},"0":{"x_min":0,"x_max":458,"ha":458,"o":"m 301 585 q 359 585 401 526 q 444 466 444 376 q 444 235 358 112 q 271 -11 176 -11 q 116 -11 74 49 q 33 108 33 198 q 33 340 119 462 q 206 585 301 585 z m 197 14 q 270 14 323 126 q 376 238 376 384 q 376 464 347 512 q 319 560 273 560 q 211 560 156 454 q 101 348 101 198 q 101 112 130 63 q 158 14 197 14 z"},"F":{"x_min":0,"x_max":406,"ha":406,"o":"m 384 348 l 357 219 l 340 219 q 334 248 322 260 q 309 273 267 273 l 187 273 l 141 55 q 133 17 191 17 l 188 0 l 9 0 l 12 17 q 42 17 55 32 q 69 48 79 93 l 161 478 q 165 493 165 503 q 165 538 122 538 l 112 538 l 116 555 l 440 555 l 421 466 l 404 466 q 405 480 405 489 q 405 513 395 521 q 384 528 352 528 l 242 528 l 192 300 l 292 300 q 330 300 344 311 q 357 322 367 348 z"},"`":{"x_min":0,"x_max":333,"ha":333,"o":"m 142 595 l 197 595 l 267 403 l 247 403 z"},"k":{"x_min":0,"x_max":365,"ha":365,"o":"m 230 595 l 165 289 l 167 287 q 231 340 287 340 q 314 340 333 324 q 352 309 352 287 q 352 219 208 168 l 285 58 q 315 15 347 17 l 344 0 l 260 0 l 137 159 l 119 73 q 116 56 116 46 q 116 16 158 17 l 155 0 l 11 0 l 15 17 q 36 18 46 31 q 55 44 64 86 l 152 500 q 155 514 155 523 q 155 540 144 547 q 132 553 102 553 l 106 570 l 210 595 z m 160 265 l 139 168 q 293 204 293 267 q 293 300 250 300 q 208 300 160 265 z"},"u":{"x_min":0,"x_max":417,"ha":417,"o":"m 389 340 l 339 99 q 334 78 334 57 q 334 22 376 27 l 372 10 l 257 -9 l 271 55 l 269 57 q 193 -11 141 -11 q 106 -11 85 13 q 63 37 63 75 q 63 101 70 133 l 95 249 q 98 262 98 271 q 98 296 65 296 q 58 296 50 295 l 53 312 l 152 340 l 172 340 l 126 120 q 120 88 120 80 q 120 58 135 42 q 149 27 170 27 q 202 27 239 55 q 276 83 278 90 l 313 253 q 314 261 314 267 q 314 297 286 297 q 278 297 267 295 l 270 312 l 369 340 z"},"]":{"x_min":0,"x_max":313,"ha":313,"o":"m 297 567 l 143 -178 l -24 -178 l -20 -161 l 29 -161 q 70 -161 81 -151 q 91 -140 103 -83 l 223 475 l 231 527 q 231 550 197 550 l 132 550 l 135 567 z"},"U":{"x_min":0,"x_max":594,"ha":594,"o":"m 438 153 l 503 468 q 508 492 508 503 q 508 538 458 538 l 461 555 l 642 555 l 637 538 q 609 534 595 522 q 582 511 570 457 l 515 195 q 494 96 432 42 q 370 -12 282 -12 q 206 -12 155 32 q 104 77 104 151 q 104 175 109 201 l 167 468 q 171 492 171 503 q 171 536 119 538 l 124 555 l 304 555 l 300 538 q 269 537 256 521 q 244 505 233 457 l 176 189 q 169 157 169 130 q 169 10 292 10 q 346 10 385 50 q 424 89 438 153 z"},"o":{"x_min":0,"x_max":365,"ha":365,"o":"m 240 340 q 280 340 311 306 q 341 272 341 227 q 341 147 281 68 q 221 -11 138 -11 q 92 -11 63 21 q 34 54 34 105 q 34 194 98 267 q 163 340 240 340 z m 160 18 q 208 18 245 78 q 282 139 282 222 q 282 260 263 285 q 243 311 214 311 q 167 311 130 251 q 93 191 93 110 q 93 68 111 43 q 129 18 160 18 z"},"N":{"x_min":0,"x_max":604,"ha":604,"o":"m 114 85 l 197 480 q 176 510 157 524 q 138 538 107 538 l 89 538 l 92 555 l 229 555 l 475 103 l 555 480 q 558 492 558 501 q 558 538 517 538 l 499 538 l 502 555 l 641 555 l 638 538 q 588 536 574 469 l 474 0 l 453 0 l 215 450 l 213 450 l 137 85 q 133 67 133 55 q 133 17 190 17 l 186 0 l 48 0 l 52 17 q 100 18 114 85 z"},"+":{"x_min":0,"x_max":667,"ha":667,"o":"m 86 284 l 327 284 l 327 525 l 370 525 l 370 284 l 611 284 l 611 241 l 370 241 l 370 0 l 327 0 l 327 241 l 86 241 z"},"G":{"x_min":0,"x_max":542,"ha":542,"o":"m 462 154 l 432 11 q 353 -12 287 -12 q 184 -12 121 52 q 58 117 58 222 q 58 368 158 467 q 257 567 381 567 q 408 567 443 562 q 478 557 480 557 q 497 557 508 581 l 525 581 l 502 472 l 485 472 q 490 504 455 524 q 420 545 374 545 q 277 545 204 459 q 132 373 132 230 q 132 126 177 68 q 222 10 297 10 q 331 10 366 27 l 396 168 q 398 177 398 185 q 398 217 355 217 l 339 217 l 342 234 l 529 234 l 526 217 q 475 217 462 154 z"},"q":{"x_min":0,"x_max":385,"ha":385,"o":"m 364 340 l 255 -173 q 252 -188 252 -199 q 252 -230 280 -230 l 314 -229 l 309 -248 l 202 -275 l 176 -275 l 243 42 l 241 44 q 190 -11 131 -11 q 84 -11 58 19 q 32 49 32 103 q 32 206 128 276 q 224 347 364 340 z m 299 305 l 266 306 q 189 306 140 255 q 91 204 91 118 q 91 79 111 54 q 131 29 164 29 q 198 29 224 51 q 249 73 250 77 z"},"d":{"x_min":0,"x_max":396,"ha":396,"o":"m 409 595 l 304 99 q 299 75 299 62 q 299 34 333 34 q 341 34 366 37 l 361 17 l 227 -9 l 237 37 q 172 -11 129 -11 q 90 -11 61 24 q 32 59 32 107 q 32 194 101 266 q 170 337 300 335 l 333 491 q 337 511 337 522 q 337 551 306 551 q 283 551 270 550 l 275 570 l 389 595 z m 295 312 l 251 312 q 173 312 132 258 q 91 205 91 127 q 91 85 113 57 q 134 29 167 29 q 205 29 242 63 z"},"1":{"x_min":0,"x_max":458,"ha":458,"o":"m 334 587 l 234 92 q 229 70 229 56 q 229 17 271 17 l 289 17 l 285 0 l 88 0 l 92 17 l 107 17 q 136 17 149 27 q 162 36 168 66 l 249 448 q 256 478 256 496 q 256 521 233 521 q 223 521 185 511 l 189 529 l 319 587 z"},"5":{"x_min":0,"x_max":458,"ha":458,"o":"m 420 573 l 404 533 l 204 533 l 150 300 q 177 305 202 305 q 274 305 318 266 q 363 227 363 163 q 363 88 311 38 q 258 -11 179 -11 q 97 -11 36 42 l 46 56 q 107 16 164 16 q 223 16 259 64 q 295 113 295 162 q 295 214 261 250 q 227 285 175 285 q 161 285 124 280 l 192 573 z"}}}
